# xmcd CD database file
#
# Track frame offsets:
#	187
#	19875
#	37837
#
# Disc length: 765 seconds
#
# Revision: 0
# Processed by: cddbd v1.5PL3 Copyright (c) Steve Scherf et al.
# Submitted via: CDex 1.50beta9
#
DISCID=1802fb03
DTITLE=KAN - 丸いお尻が許せない
DYEAR=1993
DGENRE=J-POP
TTITLE0=丸いお尻が許せない
TTITLE1=Ｌｏｎｇ　Ｖａｃａｔｉｏｎ
TTITLE2=丸いお尻が許せない　カラオケ
EXTD=YEAR: 1993
EXTT0=
EXTT1=
EXTT2=
PLAYORDER=
